<svg xmlns="http://www.w3.org/2000/svg" width="664" height="300" viewBox="0 0 664 300">
<style>text{font-family:Arial,Helvetica,sans-serif;font-size:12px;fill:#111827}.small{font-size:10px;fill:#4b5563}.title{font-size:16px;font-weight:700}</style>
<rect width="100%" height="100%" fill="white"/>
<text class="title" x="12" y="22">Train Daily Counts Within Each Month</text>
<text class="small" x="12" y="38">Color intensity is daily count within this split. Max day count = 967.</text>
<text class="small" text-anchor="middle" x="85.0" y="37">1</text>
<text class="small" text-anchor="middle" x="157.0" y="37">5</text>
<text class="small" text-anchor="middle" x="247.0" y="37">10</text>
<text class="small" text-anchor="middle" x="337.0" y="37">15</text>
<text class="small" text-anchor="middle" x="427.0" y="37">20</text>
<text class="small" text-anchor="middle" x="517.0" y="37">25</text>
<text class="small" text-anchor="middle" x="607.0" y="37">30</text>
<text class="small" text-anchor="middle" x="625.0" y="37">31</text>
<text x="10" y="56">2020-07</text>
<rect x="76" y="42" width="16" height="18" rx="2" fill="#f3f4f6" stroke="#ffffff"><title>2020-07-01: 0</title></rect>
<rect x="94" y="42" width="16" height="18" rx="2" fill="#f3f4f6" stroke="#ffffff"><title>2020-07-02: 0</title></rect>
<rect x="112" y="42" width="16" height="18" rx="2" fill="#f3f4f6" stroke="#ffffff"><title>2020-07-03: 0</title></rect>
<rect x="130" y="42" width="16" height="18" rx="2" fill="#f3f4f6" stroke="#ffffff"><title>2020-07-04: 0</title></rect>
<rect x="148" y="42" width="16" height="18" rx="2" fill="#f3f4f6" stroke="#ffffff"><title>2020-07-05: 0</title></rect>
<rect x="166" y="42" width="16" height="18" rx="2" fill="#f3f4f6" stroke="#ffffff"><title>2020-07-06: 0</title></rect>
<rect x="184" y="42" width="16" height="18" rx="2" fill="#f3f4f6" stroke="#ffffff"><title>2020-07-07: 0</title></rect>
<rect x="202" y="42" width="16" height="18" rx="2" fill="#f3f4f6" stroke="#ffffff"><title>2020-07-08: 0</title></rect>
<rect x="220" y="42" width="16" height="18" rx="2" fill="#f3f4f6" stroke="#ffffff"><title>2020-07-09: 0</title></rect>
<rect x="238" y="42" width="16" height="18" rx="2" fill="#f3f4f6" stroke="#ffffff"><title>2020-07-10: 0</title></rect>
<rect x="256" y="42" width="16" height="18" rx="2" fill="#f3f4f6" stroke="#ffffff"><title>2020-07-11: 0</title></rect>
<rect x="274" y="42" width="16" height="18" rx="2" fill="#f3f4f6" stroke="#ffffff"><title>2020-07-12: 0</title></rect>
<rect x="292" y="42" width="16" height="18" rx="2" fill="#f3f4f6" stroke="#ffffff"><title>2020-07-13: 0</title></rect>
<rect x="310" y="42" width="16" height="18" rx="2" fill="#f3f4f6" stroke="#ffffff"><title>2020-07-14: 0</title></rect>
<rect x="328" y="42" width="16" height="18" rx="2" fill="#e2c7c7" stroke="#ffffff"><title>2020-07-15: 89</title></rect>
<rect x="346" y="42" width="16" height="18" rx="2" fill="#de907b" stroke="#ffffff"><title>2020-07-16: 423</title></rect>
<rect x="364" y="42" width="16" height="18" rx="2" fill="#dc785b" stroke="#ffffff"><title>2020-07-17: 625</title></rect>
<rect x="382" y="42" width="16" height="18" rx="2" fill="#de9481" stroke="#ffffff"><title>2020-07-18: 390</title></rect>
<rect x="400" y="42" width="16" height="18" rx="2" fill="#de9582" stroke="#ffffff"><title>2020-07-19: 382</title></rect>
<rect x="418" y="42" width="16" height="18" rx="2" fill="#dc7759" stroke="#ffffff"><title>2020-07-20: 639</title></rect>
<rect x="436" y="42" width="16" height="18" rx="2" fill="#dc7556" stroke="#ffffff"><title>2020-07-21: 661</title></rect>
<rect x="454" y="42" width="16" height="18" rx="2" fill="#db6642" stroke="#ffffff"><title>2020-07-22: 814</title></rect>
<rect x="472" y="42" width="16" height="18" rx="2" fill="#da582f" stroke="#ffffff"><title>2020-07-23: 966</title></rect>
<rect x="490" y="42" width="16" height="18" rx="2" fill="#db633e" stroke="#ffffff"><title>2020-07-24: 846</title></rect>
<rect x="508" y="42" width="16" height="18" rx="2" fill="#da582f" stroke="#ffffff"><title>2020-07-25: 967</title></rect>
<rect x="526" y="42" width="16" height="18" rx="2" fill="#da5e38" stroke="#ffffff"><title>2020-07-26: 895</title></rect>
<rect x="544" y="42" width="16" height="18" rx="2" fill="#db613b" stroke="#ffffff"><title>2020-07-27: 869</title></rect>
<rect x="562" y="42" width="16" height="18" rx="2" fill="#db6541" stroke="#ffffff"><title>2020-07-28: 823</title></rect>
<rect x="580" y="42" width="16" height="18" rx="2" fill="#db5f39" stroke="#ffffff"><title>2020-07-29: 884</title></rect>
<rect x="598" y="42" width="16" height="18" rx="2" fill="#dd8167" stroke="#ffffff"><title>2020-07-30: 546</title></rect>
<rect x="616" y="42" width="16" height="18" rx="2" fill="#dd7b5f" stroke="#ffffff"><title>2020-07-31: 601</title></rect>
<text x="10" y="82">2020-08</text>
<rect x="76" y="68" width="16" height="18" rx="2" fill="#dc7a5d" stroke="#ffffff"><title>2020-08-01: 612</title></rect>
<rect x="94" y="68" width="16" height="18" rx="2" fill="#dd8066" stroke="#ffffff"><title>2020-08-02: 554</title></rect>
<rect x="112" y="68" width="16" height="18" rx="2" fill="#dd8369" stroke="#ffffff"><title>2020-08-03: 532</title></rect>
<rect x="130" y="68" width="16" height="18" rx="2" fill="#dd7c60" stroke="#ffffff"><title>2020-08-04: 594</title></rect>
<rect x="148" y="68" width="16" height="18" rx="2" fill="#dc785a" stroke="#ffffff"><title>2020-08-05: 632</title></rect>
<rect x="166" y="68" width="16" height="18" rx="2" fill="#dc6d4c" stroke="#ffffff"><title>2020-08-06: 733</title></rect>
<rect x="184" y="68" width="16" height="18" rx="2" fill="#e0aca1" stroke="#ffffff"><title>2020-08-07: 227</title></rect>
<rect x="202" y="68" width="16" height="18" rx="2" fill="#f3f4f6" stroke="#ffffff"><title>2020-08-08: 0</title></rect>
<rect x="220" y="68" width="16" height="18" rx="2" fill="#f3f4f6" stroke="#ffffff"><title>2020-08-09: 0</title></rect>
<rect x="238" y="68" width="16" height="18" rx="2" fill="#dfa092" stroke="#ffffff"><title>2020-08-10: 301</title></rect>
<rect x="256" y="68" width="16" height="18" rx="2" fill="#dd7c61" stroke="#ffffff"><title>2020-08-11: 587</title></rect>
<rect x="274" y="68" width="16" height="18" rx="2" fill="#dc7353" stroke="#ffffff"><title>2020-08-12: 681</title></rect>
<rect x="292" y="68" width="16" height="18" rx="2" fill="#dc7151" stroke="#ffffff"><title>2020-08-13: 698</title></rect>
<rect x="310" y="68" width="16" height="18" rx="2" fill="#dd7d62" stroke="#ffffff"><title>2020-08-14: 581</title></rect>
<rect x="328" y="68" width="16" height="18" rx="2" fill="#de8b75" stroke="#ffffff"><title>2020-08-15: 460</title></rect>
<rect x="346" y="68" width="16" height="18" rx="2" fill="#dd8369" stroke="#ffffff"><title>2020-08-16: 531</title></rect>
<rect x="364" y="68" width="16" height="18" rx="2" fill="#df9988" stroke="#ffffff"><title>2020-08-17: 351</title></rect>
<rect x="382" y="68" width="16" height="18" rx="2" fill="#dd876f" stroke="#ffffff"><title>2020-08-18: 494</title></rect>
<rect x="400" y="68" width="16" height="18" rx="2" fill="#df9786" stroke="#ffffff"><title>2020-08-19: 362</title></rect>
<rect x="418" y="68" width="16" height="18" rx="2" fill="#e1b4ad" stroke="#ffffff"><title>2020-08-20: 178</title></rect>
<rect x="436" y="68" width="16" height="18" rx="2" fill="#e0a699" stroke="#ffffff"><title>2020-08-21: 264</title></rect>
<rect x="454" y="68" width="16" height="18" rx="2" fill="#dfa294" stroke="#ffffff"><title>2020-08-22: 289</title></rect>
<rect x="472" y="68" width="16" height="18" rx="2" fill="#e1b8b3" stroke="#ffffff"><title>2020-08-23: 156</title></rect>
<rect x="490" y="68" width="16" height="18" rx="2" fill="#e1bdb9" stroke="#ffffff"><title>2020-08-24: 132</title></rect>
<rect x="508" y="68" width="16" height="18" rx="2" fill="#e2c6c5" stroke="#ffffff"><title>2020-08-25: 95</title></rect>
<rect x="526" y="68" width="16" height="18" rx="2" fill="#e2cbcc" stroke="#ffffff"><title>2020-08-26: 75</title></rect>
<rect x="544" y="68" width="16" height="18" rx="2" fill="#e2c9ca" stroke="#ffffff"><title>2020-08-27: 81</title></rect>
<rect x="562" y="68" width="16" height="18" rx="2" fill="#e2c3c2" stroke="#ffffff"><title>2020-08-28: 104</title></rect>
<rect x="580" y="68" width="16" height="18" rx="2" fill="#e2c1bf" stroke="#ffffff"><title>2020-08-29: 114</title></rect>
<rect x="598" y="68" width="16" height="18" rx="2" fill="#e2c5c4" stroke="#ffffff"><title>2020-08-30: 97</title></rect>
<rect x="616" y="68" width="16" height="18" rx="2" fill="#e2c3c2" stroke="#ffffff"><title>2020-08-31: 104</title></rect>
<text x="10" y="108">2020-09</text>
<rect x="76" y="94" width="16" height="18" rx="2" fill="#e0a99d" stroke="#ffffff"><title>2020-09-01: 244</title></rect>
<rect x="94" y="94" width="16" height="18" rx="2" fill="#e1bdba" stroke="#ffffff"><title>2020-09-02: 131</title></rect>
<rect x="112" y="94" width="16" height="18" rx="2" fill="#e1bbb7" stroke="#ffffff"><title>2020-09-03: 142</title></rect>
<rect x="130" y="94" width="16" height="18" rx="2" fill="#e2c0be" stroke="#ffffff"><title>2020-09-04: 117</title></rect>
<rect x="148" y="94" width="16" height="18" rx="2" fill="#e1b5af" stroke="#ffffff"><title>2020-09-05: 172</title></rect>
<rect x="166" y="94" width="16" height="18" rx="2" fill="#e1bab5" stroke="#ffffff"><title>2020-09-06: 147</title></rect>
<rect x="184" y="94" width="16" height="18" rx="2" fill="#e1bebb" stroke="#ffffff"><title>2020-09-07: 127</title></rect>
<rect x="202" y="94" width="16" height="18" rx="2" fill="#e2c9ca" stroke="#ffffff"><title>2020-09-08: 81</title></rect>
<rect x="220" y="94" width="16" height="18" rx="2" fill="#e1c0bd" stroke="#ffffff"><title>2020-09-09: 121</title></rect>
<rect x="238" y="94" width="16" height="18" rx="2" fill="#e0b2aa" stroke="#ffffff"><title>2020-09-10: 191</title></rect>
<rect x="256" y="94" width="16" height="18" rx="2" fill="#e1bab5" stroke="#ffffff"><title>2020-09-11: 147</title></rect>
<rect x="274" y="94" width="16" height="18" rx="2" fill="#e1bbb7" stroke="#ffffff"><title>2020-09-12: 141</title></rect>
<rect x="292" y="94" width="16" height="18" rx="2" fill="#e1bcb7" stroke="#ffffff"><title>2020-09-13: 139</title></rect>
<rect x="310" y="94" width="16" height="18" rx="2" fill="#e2cbcc" stroke="#ffffff"><title>2020-09-14: 75</title></rect>
<rect x="328" y="94" width="16" height="18" rx="2" fill="#e1bfbc" stroke="#ffffff"><title>2020-09-15: 123</title></rect>
<rect x="346" y="94" width="16" height="18" rx="2" fill="#e1bbb7" stroke="#ffffff"><title>2020-09-16: 141</title></rect>
<rect x="364" y="94" width="16" height="18" rx="2" fill="#e2c3c2" stroke="#ffffff"><title>2020-09-17: 104</title></rect>
<rect x="382" y="94" width="16" height="18" rx="2" fill="#e2ccce" stroke="#ffffff"><title>2020-09-18: 69</title></rect>
<rect x="400" y="94" width="16" height="18" rx="2" fill="#e2cacb" stroke="#ffffff"><title>2020-09-19: 79</title></rect>
<rect x="418" y="94" width="16" height="18" rx="2" fill="#e2cacc" stroke="#ffffff"><title>2020-09-20: 76</title></rect>
<rect x="436" y="94" width="16" height="18" rx="2" fill="#e2c9ca" stroke="#ffffff"><title>2020-09-21: 80</title></rect>
<rect x="454" y="94" width="16" height="18" rx="2" fill="#e2c6c5" stroke="#ffffff"><title>2020-09-22: 95</title></rect>
<rect x="472" y="94" width="16" height="18" rx="2" fill="#e2c4c3" stroke="#ffffff"><title>2020-09-23: 101</title></rect>
<rect x="490" y="94" width="16" height="18" rx="2" fill="#e2c6c6" stroke="#ffffff"><title>2020-09-24: 93</title></rect>
<rect x="508" y="94" width="16" height="18" rx="2" fill="#dfa395" stroke="#ffffff"><title>2020-09-25: 283</title></rect>
<rect x="526" y="94" width="16" height="18" rx="2" fill="#e1b4ad" stroke="#ffffff"><title>2020-09-26: 177</title></rect>
<rect x="544" y="94" width="16" height="18" rx="2" fill="#e1b4ad" stroke="#ffffff"><title>2020-09-27: 178</title></rect>
<rect x="562" y="94" width="16" height="18" rx="2" fill="#e1beba" stroke="#ffffff"><title>2020-09-28: 130</title></rect>
<rect x="580" y="94" width="16" height="18" rx="2" fill="#e2c3c2" stroke="#ffffff"><title>2020-09-29: 104</title></rect>
<rect x="598" y="94" width="16" height="18" rx="2" fill="#e2c8c9" stroke="#ffffff"><title>2020-09-30: 84</title></rect>
<rect x="616" y="94" width="16" height="18" rx="2" fill="#f3f4f6" stroke="#ffffff"><title>2020-09-31: 0</title></rect>
<text x="10" y="134">2020-10</text>
<rect x="76" y="120" width="16" height="18" rx="2" fill="#e2c3c2" stroke="#ffffff"><title>2020-10-01: 104</title></rect>
<rect x="94" y="120" width="16" height="18" rx="2" fill="#e2c9c9" stroke="#ffffff"><title>2020-10-02: 82</title></rect>
<rect x="112" y="120" width="16" height="18" rx="2" fill="#e2c2bf" stroke="#ffffff"><title>2020-10-03: 112</title></rect>
<rect x="130" y="120" width="16" height="18" rx="2" fill="#e2c5c4" stroke="#ffffff"><title>2020-10-04: 99</title></rect>
<rect x="148" y="120" width="16" height="18" rx="2" fill="#e2c3c1" stroke="#ffffff"><title>2020-10-05: 106</title></rect>
<rect x="166" y="120" width="16" height="18" rx="2" fill="#e2cdcf" stroke="#ffffff"><title>2020-10-06: 67</title></rect>
<rect x="184" y="120" width="16" height="18" rx="2" fill="#e2c3c1" stroke="#ffffff"><title>2020-10-07: 106</title></rect>
<rect x="202" y="120" width="16" height="18" rx="2" fill="#e1bcb8" stroke="#ffffff"><title>2020-10-08: 136</title></rect>
<rect x="220" y="120" width="16" height="18" rx="2" fill="#e2c5c5" stroke="#ffffff"><title>2020-10-09: 96</title></rect>
<rect x="238" y="120" width="16" height="18" rx="2" fill="#e2c8c9" stroke="#ffffff"><title>2020-10-10: 84</title></rect>
<rect x="256" y="120" width="16" height="18" rx="2" fill="#e2c8c8" stroke="#ffffff"><title>2020-10-11: 87</title></rect>
<rect x="274" y="120" width="16" height="18" rx="2" fill="#e3ced1" stroke="#ffffff"><title>2020-10-12: 62</title></rect>
<rect x="292" y="120" width="16" height="18" rx="2" fill="#e3d1d5" stroke="#ffffff"><title>2020-10-13: 53</title></rect>
<rect x="310" y="120" width="16" height="18" rx="2" fill="#e3d9df" stroke="#ffffff"><title>2020-10-14: 32</title></rect>
<rect x="328" y="120" width="16" height="18" rx="2" fill="#e3d4d9" stroke="#ffffff"><title>2020-10-15: 44</title></rect>
<rect x="346" y="120" width="16" height="18" rx="2" fill="#e3d9e0" stroke="#ffffff"><title>2020-10-16: 30</title></rect>
<rect x="364" y="120" width="16" height="18" rx="2" fill="#e3d8dd" stroke="#ffffff"><title>2020-10-17: 35</title></rect>
<rect x="382" y="120" width="16" height="18" rx="2" fill="#e3d5da" stroke="#ffffff"><title>2020-10-18: 42</title></rect>
<rect x="400" y="120" width="16" height="18" rx="2" fill="#e2c9ca" stroke="#ffffff"><title>2020-10-19: 81</title></rect>
<rect x="418" y="120" width="16" height="18" rx="2" fill="#e2c8c8" stroke="#ffffff"><title>2020-10-20: 86</title></rect>
<rect x="436" y="120" width="16" height="18" rx="2" fill="#e2c3c2" stroke="#ffffff"><title>2020-10-21: 105</title></rect>
<rect x="454" y="120" width="16" height="18" rx="2" fill="#e1bbb6" stroke="#ffffff"><title>2020-10-22: 144</title></rect>
<rect x="472" y="120" width="16" height="18" rx="2" fill="#e2cbcd" stroke="#ffffff"><title>2020-10-23: 73</title></rect>
<rect x="490" y="120" width="16" height="18" rx="2" fill="#e2c1bf" stroke="#ffffff"><title>2020-10-24: 115</title></rect>
<rect x="508" y="120" width="16" height="18" rx="2" fill="#e2c4c2" stroke="#ffffff"><title>2020-10-25: 103</title></rect>
<rect x="526" y="120" width="16" height="18" rx="2" fill="#e2c9ca" stroke="#ffffff"><title>2020-10-26: 80</title></rect>
<rect x="544" y="120" width="16" height="18" rx="2" fill="#e1b4ae" stroke="#ffffff"><title>2020-10-27: 176</title></rect>
<rect x="562" y="120" width="16" height="18" rx="2" fill="#e1b9b4" stroke="#ffffff"><title>2020-10-28: 152</title></rect>
<rect x="580" y="120" width="16" height="18" rx="2" fill="#e1b3ab" stroke="#ffffff"><title>2020-10-29: 184</title></rect>
<rect x="598" y="120" width="16" height="18" rx="2" fill="#e0aba1" stroke="#ffffff"><title>2020-10-30: 229</title></rect>
<rect x="616" y="120" width="16" height="18" rx="2" fill="#e3d1d4" stroke="#ffffff"><title>2020-10-31: 55</title></rect>
<text x="10" y="160">2020-11</text>
<rect x="76" y="146" width="16" height="18" rx="2" fill="#e3d3d8" stroke="#ffffff"><title>2020-11-01: 47</title></rect>
<rect x="94" y="146" width="16" height="18" rx="2" fill="#e2c8c9" stroke="#ffffff"><title>2020-11-02: 84</title></rect>
<rect x="112" y="146" width="16" height="18" rx="2" fill="#e2c8c8" stroke="#ffffff"><title>2020-11-03: 86</title></rect>
<rect x="130" y="146" width="16" height="18" rx="2" fill="#e2c7c7" stroke="#ffffff"><title>2020-11-04: 90</title></rect>
<rect x="148" y="146" width="16" height="18" rx="2" fill="#e2c6c5" stroke="#ffffff"><title>2020-11-05: 95</title></rect>
<rect x="166" y="146" width="16" height="18" rx="2" fill="#e2c2c0" stroke="#ffffff"><title>2020-11-06: 111</title></rect>
<rect x="184" y="146" width="16" height="18" rx="2" fill="#e1bfbc" stroke="#ffffff"><title>2020-11-07: 122</title></rect>
<rect x="202" y="146" width="16" height="18" rx="2" fill="#e2c7c7" stroke="#ffffff"><title>2020-11-08: 89</title></rect>
<rect x="220" y="146" width="16" height="18" rx="2" fill="#e3d3d7" stroke="#ffffff"><title>2020-11-09: 48</title></rect>
<rect x="238" y="146" width="16" height="18" rx="2" fill="#e3ced1" stroke="#ffffff"><title>2020-11-10: 63</title></rect>
<rect x="256" y="146" width="16" height="18" rx="2" fill="#e3d3d7" stroke="#ffffff"><title>2020-11-11: 49</title></rect>
<rect x="274" y="146" width="16" height="18" rx="2" fill="#e3d0d3" stroke="#ffffff"><title>2020-11-12: 57</title></rect>
<rect x="292" y="146" width="16" height="18" rx="2" fill="#e3d4d9" stroke="#ffffff"><title>2020-11-13: 44</title></rect>
<rect x="310" y="146" width="16" height="18" rx="2" fill="#e3d5da" stroke="#ffffff"><title>2020-11-14: 42</title></rect>
<rect x="328" y="146" width="16" height="18" rx="2" fill="#e2cacb" stroke="#ffffff"><title>2020-11-15: 77</title></rect>
<rect x="346" y="146" width="16" height="18" rx="2" fill="#e2c4c2" stroke="#ffffff"><title>2020-11-16: 103</title></rect>
<rect x="364" y="146" width="16" height="18" rx="2" fill="#e3d2d6" stroke="#ffffff"><title>2020-11-17: 50</title></rect>
<rect x="382" y="146" width="16" height="18" rx="2" fill="#e2c8c8" stroke="#ffffff"><title>2020-11-18: 85</title></rect>
<rect x="400" y="146" width="16" height="18" rx="2" fill="#e3d0d3" stroke="#ffffff"><title>2020-11-19: 58</title></rect>
<rect x="418" y="146" width="16" height="18" rx="2" fill="#e2cbcc" stroke="#ffffff"><title>2020-11-20: 75</title></rect>
<rect x="436" y="146" width="16" height="18" rx="2" fill="#e3cfd2" stroke="#ffffff"><title>2020-11-21: 60</title></rect>
<rect x="454" y="146" width="16" height="18" rx="2" fill="#e1beba" stroke="#ffffff"><title>2020-11-22: 130</title></rect>
<rect x="472" y="146" width="16" height="18" rx="2" fill="#e3d8df" stroke="#ffffff"><title>2020-11-23: 33</title></rect>
<rect x="490" y="146" width="16" height="18" rx="2" fill="#e3d3d7" stroke="#ffffff"><title>2020-11-24: 48</title></rect>
<rect x="508" y="146" width="16" height="18" rx="2" fill="#e2c2c0" stroke="#ffffff"><title>2020-11-25: 110</title></rect>
<rect x="526" y="146" width="16" height="18" rx="2" fill="#e3cfd2" stroke="#ffffff"><title>2020-11-26: 60</title></rect>
<rect x="544" y="146" width="16" height="18" rx="2" fill="#e2c9ca" stroke="#ffffff"><title>2020-11-27: 80</title></rect>
<rect x="562" y="146" width="16" height="18" rx="2" fill="#e2c5c4" stroke="#ffffff"><title>2020-11-28: 98</title></rect>
<rect x="580" y="146" width="16" height="18" rx="2" fill="#e2cbcd" stroke="#ffffff"><title>2020-11-29: 73</title></rect>
<rect x="598" y="146" width="16" height="18" rx="2" fill="#e3d1d5" stroke="#ffffff"><title>2020-11-30: 53</title></rect>
<rect x="616" y="146" width="16" height="18" rx="2" fill="#f3f4f6" stroke="#ffffff"><title>2020-11-31: 0</title></rect>
<text x="10" y="186">2020-12</text>
<rect x="76" y="172" width="16" height="18" rx="2" fill="#e3d2d6" stroke="#ffffff"><title>2020-12-01: 51</title></rect>
<rect x="94" y="172" width="16" height="18" rx="2" fill="#e2c5c4" stroke="#ffffff"><title>2020-12-02: 97</title></rect>
<rect x="112" y="172" width="16" height="18" rx="2" fill="#e2c4c2" stroke="#ffffff"><title>2020-12-03: 103</title></rect>
<rect x="130" y="172" width="16" height="18" rx="2" fill="#e2c1bf" stroke="#ffffff"><title>2020-12-04: 114</title></rect>
<rect x="148" y="172" width="16" height="18" rx="2" fill="#e3cfd2" stroke="#ffffff"><title>2020-12-05: 59</title></rect>
<rect x="166" y="172" width="16" height="18" rx="2" fill="#e2c9ca" stroke="#ffffff"><title>2020-12-06: 81</title></rect>
<rect x="184" y="172" width="16" height="18" rx="2" fill="#e2c7c7" stroke="#ffffff"><title>2020-12-07: 88</title></rect>
<rect x="202" y="172" width="16" height="18" rx="2" fill="#e3ced1" stroke="#ffffff"><title>2020-12-08: 62</title></rect>
<rect x="220" y="172" width="16" height="18" rx="2" fill="#e3ced0" stroke="#ffffff"><title>2020-12-09: 65</title></rect>
<rect x="238" y="172" width="16" height="18" rx="2" fill="#e3d6db" stroke="#ffffff"><title>2020-12-10: 40</title></rect>
<rect x="256" y="172" width="16" height="18" rx="2" fill="#e3d5d9" stroke="#ffffff"><title>2020-12-11: 43</title></rect>
<rect x="274" y="172" width="16" height="18" rx="2" fill="#e2c3c2" stroke="#ffffff"><title>2020-12-12: 105</title></rect>
<rect x="292" y="172" width="16" height="18" rx="2" fill="#e2c9c9" stroke="#ffffff"><title>2020-12-13: 82</title></rect>
<rect x="310" y="172" width="16" height="18" rx="2" fill="#e3d7dc" stroke="#ffffff"><title>2020-12-14: 37</title></rect>
<rect x="328" y="172" width="16" height="18" rx="2" fill="#e2cacb" stroke="#ffffff"><title>2020-12-15: 78</title></rect>
<rect x="346" y="172" width="16" height="18" rx="2" fill="#e2cdcf" stroke="#ffffff"><title>2020-12-16: 66</title></rect>
<rect x="364" y="172" width="16" height="18" rx="2" fill="#e3d1d4" stroke="#ffffff"><title>2020-12-17: 54</title></rect>
<rect x="382" y="172" width="16" height="18" rx="2" fill="#e2cdcf" stroke="#ffffff"><title>2020-12-18: 67</title></rect>
<rect x="400" y="172" width="16" height="18" rx="2" fill="#e1b9b4" stroke="#ffffff"><title>2020-12-19: 151</title></rect>
<rect x="418" y="172" width="16" height="18" rx="2" fill="#e3d1d4" stroke="#ffffff"><title>2020-12-20: 55</title></rect>
<rect x="436" y="172" width="16" height="18" rx="2" fill="#e3d4d9" stroke="#ffffff"><title>2020-12-21: 45</title></rect>
<rect x="454" y="172" width="16" height="18" rx="2" fill="#e3d0d4" stroke="#ffffff"><title>2020-12-22: 56</title></rect>
<rect x="472" y="172" width="16" height="18" rx="2" fill="#e3d5da" stroke="#ffffff"><title>2020-12-23: 42</title></rect>
<rect x="490" y="172" width="16" height="18" rx="2" fill="#e3d5da" stroke="#ffffff"><title>2020-12-24: 42</title></rect>
<rect x="508" y="172" width="16" height="18" rx="2" fill="#e3d1d4" stroke="#ffffff"><title>2020-12-25: 54</title></rect>
<rect x="526" y="172" width="16" height="18" rx="2" fill="#e3d1d5" stroke="#ffffff"><title>2020-12-26: 53</title></rect>
<rect x="544" y="172" width="16" height="18" rx="2" fill="#e4dee6" stroke="#ffffff"><title>2020-12-27: 21</title></rect>
<rect x="562" y="172" width="16" height="18" rx="2" fill="#e3d7dc" stroke="#ffffff"><title>2020-12-28: 37</title></rect>
<rect x="580" y="172" width="16" height="18" rx="2" fill="#e4dee7" stroke="#ffffff"><title>2020-12-29: 19</title></rect>
<rect x="598" y="172" width="16" height="18" rx="2" fill="#e3d7dc" stroke="#ffffff"><title>2020-12-30: 37</title></rect>
<rect x="616" y="172" width="16" height="18" rx="2" fill="#e4dce3" stroke="#ffffff"><title>2020-12-31: 25</title></rect>
<text x="10" y="212">2021-01</text>
<rect x="76" y="198" width="16" height="18" rx="2" fill="#e3d5da" stroke="#ffffff"><title>2021-01-01: 42</title></rect>
<rect x="94" y="198" width="16" height="18" rx="2" fill="#e3ced1" stroke="#ffffff"><title>2021-01-02: 62</title></rect>
<rect x="112" y="198" width="16" height="18" rx="2" fill="#e2cdcf" stroke="#ffffff"><title>2021-01-03: 66</title></rect>
<rect x="130" y="198" width="16" height="18" rx="2" fill="#e3d5da" stroke="#ffffff"><title>2021-01-04: 41</title></rect>
<rect x="148" y="198" width="16" height="18" rx="2" fill="#e3d6db" stroke="#ffffff"><title>2021-01-05: 40</title></rect>
<rect x="166" y="198" width="16" height="18" rx="2" fill="#e3d9df" stroke="#ffffff"><title>2021-01-06: 32</title></rect>
<rect x="184" y="198" width="16" height="18" rx="2" fill="#e1bdb9" stroke="#ffffff"><title>2021-01-07: 132</title></rect>
<rect x="202" y="198" width="16" height="18" rx="2" fill="#e2c3c2" stroke="#ffffff"><title>2021-01-08: 104</title></rect>
<rect x="220" y="198" width="16" height="18" rx="2" fill="#e4e2ec" stroke="#ffffff"><title>2021-01-09: 13</title></rect>
<rect x="238" y="198" width="16" height="18" rx="2" fill="#e3cfd2" stroke="#ffffff"><title>2021-01-10: 59</title></rect>
<rect x="256" y="198" width="16" height="18" rx="2" fill="#e3d4d9" stroke="#ffffff"><title>2021-01-11: 44</title></rect>
<rect x="274" y="198" width="16" height="18" rx="2" fill="#e3cfd2" stroke="#ffffff"><title>2021-01-12: 60</title></rect>
<rect x="292" y="198" width="16" height="18" rx="2" fill="#e3cfd2" stroke="#ffffff"><title>2021-01-13: 59</title></rect>
<rect x="310" y="198" width="16" height="18" rx="2" fill="#e3d3d8" stroke="#ffffff"><title>2021-01-14: 47</title></rect>
<rect x="328" y="198" width="16" height="18" rx="2" fill="#e3d4d9" stroke="#ffffff"><title>2021-01-15: 44</title></rect>
<rect x="346" y="198" width="16" height="18" rx="2" fill="#e3d8dd" stroke="#ffffff"><title>2021-01-16: 35</title></rect>
<rect x="364" y="198" width="16" height="18" rx="2" fill="#e3d0d3" stroke="#ffffff"><title>2021-01-17: 58</title></rect>
<rect x="382" y="198" width="16" height="18" rx="2" fill="#e3d0d3" stroke="#ffffff"><title>2021-01-18: 57</title></rect>
<rect x="400" y="198" width="16" height="18" rx="2" fill="#e3d5d9" stroke="#ffffff"><title>2021-01-19: 43</title></rect>
<rect x="418" y="198" width="16" height="18" rx="2" fill="#e4e1eb" stroke="#ffffff"><title>2021-01-20: 14</title></rect>
<rect x="436" y="198" width="16" height="18" rx="2" fill="#e3d7dd" stroke="#ffffff"><title>2021-01-21: 36</title></rect>
<rect x="454" y="198" width="16" height="18" rx="2" fill="#e4e0e9" stroke="#ffffff"><title>2021-01-22: 16</title></rect>
<rect x="472" y="198" width="16" height="18" rx="2" fill="#e3d4d8" stroke="#ffffff"><title>2021-01-23: 46</title></rect>
<rect x="490" y="198" width="16" height="18" rx="2" fill="#e2ccce" stroke="#ffffff"><title>2021-01-24: 71</title></rect>
<rect x="508" y="198" width="16" height="18" rx="2" fill="#e3dae1" stroke="#ffffff"><title>2021-01-25: 29</title></rect>
<rect x="526" y="198" width="16" height="18" rx="2" fill="#e4e1ea" stroke="#ffffff"><title>2021-01-26: 15</title></rect>
<rect x="544" y="198" width="16" height="18" rx="2" fill="#e4e1eb" stroke="#ffffff"><title>2021-01-27: 14</title></rect>
<rect x="562" y="198" width="16" height="18" rx="2" fill="#e4dee7" stroke="#ffffff"><title>2021-01-28: 19</title></rect>
<rect x="580" y="198" width="16" height="18" rx="2" fill="#e3dae1" stroke="#ffffff"><title>2021-01-29: 29</title></rect>
<rect x="598" y="198" width="16" height="18" rx="2" fill="#e2c8c8" stroke="#ffffff"><title>2021-01-30: 87</title></rect>
<rect x="616" y="198" width="16" height="18" rx="2" fill="#e0aaa0" stroke="#ffffff"><title>2021-01-31: 234</title></rect>
<text x="10" y="238">2021-02</text>
<rect x="76" y="224" width="16" height="18" rx="2" fill="#e0afa7" stroke="#ffffff"><title>2021-02-01: 204</title></rect>
<rect x="94" y="224" width="16" height="18" rx="2" fill="#e5edfa" stroke="#ffffff"><title>2021-02-02: 1</title></rect>
<rect x="112" y="224" width="16" height="18" rx="2" fill="#f3f4f6" stroke="#ffffff"><title>2021-02-03: 0</title></rect>
<rect x="130" y="224" width="16" height="18" rx="2" fill="#f3f4f6" stroke="#ffffff"><title>2021-02-04: 0</title></rect>
<rect x="148" y="224" width="16" height="18" rx="2" fill="#f3f4f6" stroke="#ffffff"><title>2021-02-05: 0</title></rect>
<rect x="166" y="224" width="16" height="18" rx="2" fill="#f3f4f6" stroke="#ffffff"><title>2021-02-06: 0</title></rect>
<rect x="184" y="224" width="16" height="18" rx="2" fill="#f3f4f6" stroke="#ffffff"><title>2021-02-07: 0</title></rect>
<rect x="202" y="224" width="16" height="18" rx="2" fill="#f3f4f6" stroke="#ffffff"><title>2021-02-08: 0</title></rect>
<rect x="220" y="224" width="16" height="18" rx="2" fill="#f3f4f6" stroke="#ffffff"><title>2021-02-09: 0</title></rect>
<rect x="238" y="224" width="16" height="18" rx="2" fill="#f3f4f6" stroke="#ffffff"><title>2021-02-10: 0</title></rect>
<rect x="256" y="224" width="16" height="18" rx="2" fill="#e3ced1" stroke="#ffffff"><title>2021-02-11: 62</title></rect>
<rect x="274" y="224" width="16" height="18" rx="2" fill="#e2cdcf" stroke="#ffffff"><title>2021-02-12: 66</title></rect>
<rect x="292" y="224" width="16" height="18" rx="2" fill="#e3d3d7" stroke="#ffffff"><title>2021-02-13: 49</title></rect>
<rect x="310" y="224" width="16" height="18" rx="2" fill="#e3d6db" stroke="#ffffff"><title>2021-02-14: 39</title></rect>
<rect x="328" y="224" width="16" height="18" rx="2" fill="#e4e0e8" stroke="#ffffff"><title>2021-02-15: 17</title></rect>
<rect x="346" y="224" width="16" height="18" rx="2" fill="#e4dce3" stroke="#ffffff"><title>2021-02-16: 25</title></rect>
<rect x="364" y="224" width="16" height="18" rx="2" fill="#e5ebf8" stroke="#ffffff"><title>2021-02-17: 2</title></rect>
<rect x="382" y="224" width="16" height="18" rx="2" fill="#e4e7f2" stroke="#ffffff"><title>2021-02-18: 6</title></rect>
<rect x="400" y="224" width="16" height="18" rx="2" fill="#e4dee6" stroke="#ffffff"><title>2021-02-19: 21</title></rect>
<rect x="418" y="224" width="16" height="18" rx="2" fill="#e5ebf8" stroke="#ffffff"><title>2021-02-20: 2</title></rect>
<rect x="436" y="224" width="16" height="18" rx="2" fill="#e5edfa" stroke="#ffffff"><title>2021-02-21: 1</title></rect>
<rect x="454" y="224" width="16" height="18" rx="2" fill="#f3f4f6" stroke="#ffffff"><title>2021-02-22: 0</title></rect>
<rect x="472" y="224" width="16" height="18" rx="2" fill="#f3f4f6" stroke="#ffffff"><title>2021-02-23: 0</title></rect>
<rect x="490" y="224" width="16" height="18" rx="2" fill="#f3f4f6" stroke="#ffffff"><title>2021-02-24: 0</title></rect>
<rect x="508" y="224" width="16" height="18" rx="2" fill="#f3f4f6" stroke="#ffffff"><title>2021-02-25: 0</title></rect>
<rect x="526" y="224" width="16" height="18" rx="2" fill="#f3f4f6" stroke="#ffffff"><title>2021-02-26: 0</title></rect>
<rect x="544" y="224" width="16" height="18" rx="2" fill="#f3f4f6" stroke="#ffffff"><title>2021-02-27: 0</title></rect>
<rect x="562" y="224" width="16" height="18" rx="2" fill="#f3f4f6" stroke="#ffffff"><title>2021-02-28: 0</title></rect>
<rect x="580" y="224" width="16" height="18" rx="2" fill="#f3f4f6" stroke="#ffffff"><title>2021-02-29: 0</title></rect>
<rect x="598" y="224" width="16" height="18" rx="2" fill="#f3f4f6" stroke="#ffffff"><title>2021-02-30: 0</title></rect>
<rect x="616" y="224" width="16" height="18" rx="2" fill="#f3f4f6" stroke="#ffffff"><title>2021-02-31: 0</title></rect>
<text class="small" x="76" y="268">0</text>
<rect x="98" y="258" width="3" height="10" fill="#f3f4f6"/>
<rect x="101" y="258" width="3" height="10" fill="#e4e2ec"/>
<rect x="104" y="258" width="3" height="10" fill="#e4dce3"/>
<rect x="107" y="258" width="3" height="10" fill="#e3d7dd"/>
<rect x="110" y="258" width="3" height="10" fill="#e3d3d7"/>
<rect x="113" y="258" width="3" height="10" fill="#e3cfd1"/>
<rect x="116" y="258" width="3" height="10" fill="#e2cbcd"/>
<rect x="119" y="258" width="3" height="10" fill="#e2c8c8"/>
<rect x="122" y="258" width="3" height="10" fill="#e2c5c4"/>
<rect x="125" y="258" width="3" height="10" fill="#e2c2c0"/>
<rect x="128" y="258" width="3" height="10" fill="#e1bfbc"/>
<rect x="131" y="258" width="3" height="10" fill="#e1bdb9"/>
<rect x="134" y="258" width="3" height="10" fill="#e1bab5"/>
<rect x="137" y="258" width="3" height="10" fill="#e1b8b2"/>
<rect x="140" y="258" width="3" height="10" fill="#e1b5af"/>
<rect x="143" y="258" width="3" height="10" fill="#e1b3ac"/>
<rect x="146" y="258" width="3" height="10" fill="#e0b1a9"/>
<rect x="149" y="258" width="3" height="10" fill="#e0afa6"/>
<rect x="152" y="258" width="3" height="10" fill="#e0ada3"/>
<rect x="155" y="258" width="3" height="10" fill="#e0aba0"/>
<rect x="158" y="258" width="3" height="10" fill="#e0a99d"/>
<rect x="161" y="258" width="3" height="10" fill="#e0a79b"/>
<rect x="164" y="258" width="3" height="10" fill="#e0a598"/>
<rect x="167" y="258" width="3" height="10" fill="#dfa395"/>
<rect x="170" y="258" width="3" height="10" fill="#dfa193"/>
<rect x="173" y="258" width="3" height="10" fill="#df9f91"/>
<rect x="176" y="258" width="3" height="10" fill="#df9e8e"/>
<rect x="179" y="258" width="3" height="10" fill="#df9c8c"/>
<rect x="182" y="258" width="3" height="10" fill="#df9a89"/>
<rect x="185" y="258" width="3" height="10" fill="#df9887"/>
<rect x="188" y="258" width="3" height="10" fill="#df9785"/>
<rect x="191" y="258" width="3" height="10" fill="#de9583"/>
<rect x="194" y="258" width="3" height="10" fill="#de9480"/>
<rect x="197" y="258" width="3" height="10" fill="#de927e"/>
<rect x="200" y="258" width="3" height="10" fill="#de907c"/>
<rect x="203" y="258" width="3" height="10" fill="#de8f7a"/>
<rect x="206" y="258" width="3" height="10" fill="#de8d78"/>
<rect x="209" y="258" width="3" height="10" fill="#de8c76"/>
<rect x="212" y="258" width="3" height="10" fill="#de8a74"/>
<rect x="215" y="258" width="3" height="10" fill="#de8972"/>
<rect x="218" y="258" width="3" height="10" fill="#dd8770"/>
<rect x="221" y="258" width="3" height="10" fill="#dd866e"/>
<rect x="224" y="258" width="3" height="10" fill="#dd856c"/>
<rect x="227" y="258" width="3" height="10" fill="#dd836a"/>
<rect x="230" y="258" width="3" height="10" fill="#dd8268"/>
<rect x="233" y="258" width="3" height="10" fill="#dd8066"/>
<rect x="236" y="258" width="3" height="10" fill="#dd7f65"/>
<rect x="239" y="258" width="3" height="10" fill="#dd7e63"/>
<rect x="242" y="258" width="3" height="10" fill="#dd7c61"/>
<rect x="245" y="258" width="3" height="10" fill="#dd7b5f"/>
<rect x="248" y="258" width="3" height="10" fill="#dc7a5d"/>
<rect x="251" y="258" width="3" height="10" fill="#dc795b"/>
<rect x="254" y="258" width="3" height="10" fill="#dc775a"/>
<rect x="257" y="258" width="3" height="10" fill="#dc7658"/>
<rect x="260" y="258" width="3" height="10" fill="#dc7556"/>
<rect x="263" y="258" width="3" height="10" fill="#dc7355"/>
<rect x="266" y="258" width="3" height="10" fill="#dc7253"/>
<rect x="269" y="258" width="3" height="10" fill="#dc7151"/>
<rect x="272" y="258" width="3" height="10" fill="#dc7050"/>
<rect x="275" y="258" width="3" height="10" fill="#dc6f4e"/>
<rect x="278" y="258" width="3" height="10" fill="#dc6d4c"/>
<rect x="281" y="258" width="3" height="10" fill="#db6c4b"/>
<rect x="284" y="258" width="3" height="10" fill="#db6b49"/>
<rect x="287" y="258" width="3" height="10" fill="#db6a47"/>
<rect x="290" y="258" width="3" height="10" fill="#db6946"/>
<rect x="293" y="258" width="3" height="10" fill="#db6744"/>
<rect x="296" y="258" width="3" height="10" fill="#db6643"/>
<rect x="299" y="258" width="3" height="10" fill="#db6541"/>
<rect x="302" y="258" width="3" height="10" fill="#db643f"/>
<rect x="305" y="258" width="3" height="10" fill="#db633e"/>
<rect x="308" y="258" width="3" height="10" fill="#db623c"/>
<rect x="311" y="258" width="3" height="10" fill="#db613b"/>
<rect x="314" y="258" width="3" height="10" fill="#db6039"/>
<rect x="317" y="258" width="3" height="10" fill="#da5e38"/>
<rect x="320" y="258" width="3" height="10" fill="#da5d36"/>
<rect x="323" y="258" width="3" height="10" fill="#da5c35"/>
<rect x="326" y="258" width="3" height="10" fill="#da5b33"/>
<rect x="329" y="258" width="3" height="10" fill="#da5a32"/>
<rect x="332" y="258" width="3" height="10" fill="#da5930"/>
<rect x="335" y="258" width="3" height="10" fill="#da582f"/>
<text class="small" x="346" y="268">967</text>
</svg>